<?xml version="1.0" encoding="UTF-8" standalone="no"?>
<!DOCTYPE svg PUBLIC "-//W3C//DTD SVG 1.1//EN"
 "http://www.w3.org/Graphics/SVG/1.1/DTD/svg11.dtd">
<!-- Generated by graphviz version 2.43.0 (0)
 -->
<!-- Title: model Pages: 1 -->
<svg width="223pt" height="654pt"
 viewBox="0.00 0.00 223.00 654.00" xmlns="http://www.w3.org/2000/svg" xmlns:xlink="http://www.w3.org/1999/xlink">
<g id="graph0" class="graph" transform="scale(1 1) rotate(0) translate(4 650)">
<title>model</title>
<polygon fill="white" stroke="transparent" points="-4,4 -4,-650 219,-650 219,4 -4,4"/>
<!-- 0 -->
<g id="node1" class="node">
<title>0</title>
<polygon fill="lightyellow" stroke="transparent" points="184.5,-646 30.5,-646 30.5,-614 184.5,-614 184.5,-646"/>
<polygon fill="none" stroke="black" points="30.5,-614 30.5,-646 100.5,-646 100.5,-614 30.5,-614"/>
<text text-anchor="start" x="35.5" y="-633" font-family="Linux libertine" font-size="10.00">input&#45;tensor</text>
<text text-anchor="start" x="47" y="-622" font-family="Linux libertine" font-size="10.00">depth:0</text>
<polygon fill="none" stroke="black" points="100.5,-614 100.5,-646 184.5,-646 184.5,-614 100.5,-614"/>
<text text-anchor="start" x="105.5" y="-627.5" font-family="Linux libertine" font-size="10.00">(1, 1, 321, 481)</text>
</g>
<!-- 1 -->
<g id="node2" class="node">
<title>1</title>
<polygon fill="#c1ffc1" stroke="transparent" points="201.5,-578 13.5,-578 13.5,-536 201.5,-536 201.5,-578"/>
<polygon fill="none" stroke="black" points="13.5,-536 13.5,-578 60.5,-578 60.5,-536 13.5,-536"/>
<text text-anchor="start" x="18.5" y="-560" font-family="Linux libertine" font-size="10.00">Conv2d</text>
<text text-anchor="start" x="18.5" y="-549" font-family="Linux libertine" font-size="10.00">depth:2</text>
<polygon fill="none" stroke="black" points="60.5,-557 60.5,-578 108.5,-578 108.5,-557 60.5,-557"/>
<text text-anchor="start" x="70.5" y="-565" font-family="Linux libertine" font-size="10.00">input:</text>
<polygon fill="none" stroke="black" points="108.5,-557 108.5,-578 201.5,-578 201.5,-557 108.5,-557"/>
<text text-anchor="start" x="116.5" y="-565" font-family="Linux libertine" font-size="10.00">(1, 1, 321, 481) </text>
<polygon fill="none" stroke="black" points="60.5,-536 60.5,-557 108.5,-557 108.5,-536 60.5,-536"/>
<text text-anchor="start" x="65.5" y="-544" font-family="Linux libertine" font-size="10.00">output: </text>
<polygon fill="none" stroke="black" points="108.5,-536 108.5,-557 201.5,-557 201.5,-536 108.5,-536"/>
<text text-anchor="start" x="113.5" y="-544" font-family="Linux libertine" font-size="10.00">(1, 64, 321, 481) </text>
</g>
<!-- 0&#45;&gt;1 -->
<g id="edge1" class="edge">
<title>0&#45;&gt;1</title>
<path fill="none" stroke="black" d="M107.5,-613.94C107.5,-606.45 107.5,-597.12 107.5,-588.24"/>
<polygon fill="black" stroke="black" points="111,-588.16 107.5,-578.16 104,-588.16 111,-588.16"/>
</g>
<!-- 2 -->
<g id="node3" class="node">
<title>2</title>
<polygon fill="#c1ffc1" stroke="transparent" points="201.5,-500 13.5,-500 13.5,-458 201.5,-458 201.5,-500"/>
<polygon fill="none" stroke="black" points="13.5,-458 13.5,-500 60.5,-500 60.5,-458 13.5,-458"/>
<text text-anchor="start" x="24" y="-482" font-family="Linux libertine" font-size="10.00">ReLU</text>
<text text-anchor="start" x="18.5" y="-471" font-family="Linux libertine" font-size="10.00">depth:2</text>
<polygon fill="none" stroke="black" points="60.5,-479 60.5,-500 108.5,-500 108.5,-479 60.5,-479"/>
<text text-anchor="start" x="70.5" y="-487" font-family="Linux libertine" font-size="10.00">input:</text>
<polygon fill="none" stroke="black" points="108.5,-479 108.5,-500 201.5,-500 201.5,-479 108.5,-479"/>
<text text-anchor="start" x="113.5" y="-487" font-family="Linux libertine" font-size="10.00">(1, 64, 321, 481) </text>
<polygon fill="none" stroke="black" points="60.5,-458 60.5,-479 108.5,-479 108.5,-458 60.5,-458"/>
<text text-anchor="start" x="65.5" y="-466" font-family="Linux libertine" font-size="10.00">output: </text>
<polygon fill="none" stroke="black" points="108.5,-458 108.5,-479 201.5,-479 201.5,-458 108.5,-458"/>
<text text-anchor="start" x="113.5" y="-466" font-family="Linux libertine" font-size="10.00">(1, 64, 321, 481) </text>
</g>
<!-- 1&#45;&gt;2 -->
<g id="edge2" class="edge">
<title>1&#45;&gt;2</title>
<path fill="none" stroke="black" d="M107.5,-535.63C107.5,-527.82 107.5,-518.73 107.5,-510.18"/>
<polygon fill="black" stroke="black" points="111,-510.16 107.5,-500.16 104,-510.16 111,-510.16"/>
</g>
<!-- 3 -->
<g id="node4" class="node">
<title>3</title>
<polygon fill="#c1ffc1" stroke="transparent" points="201.5,-422 13.5,-422 13.5,-380 201.5,-380 201.5,-422"/>
<polygon fill="none" stroke="black" points="13.5,-380 13.5,-422 60.5,-422 60.5,-380 13.5,-380"/>
<text text-anchor="start" x="18.5" y="-404" font-family="Linux libertine" font-size="10.00">Conv2d</text>
<text text-anchor="start" x="18.5" y="-393" font-family="Linux libertine" font-size="10.00">depth:2</text>
<polygon fill="none" stroke="black" points="60.5,-401 60.5,-422 108.5,-422 108.5,-401 60.5,-401"/>
<text text-anchor="start" x="70.5" y="-409" font-family="Linux libertine" font-size="10.00">input:</text>
<polygon fill="none" stroke="black" points="108.5,-401 108.5,-422 201.5,-422 201.5,-401 108.5,-401"/>
<text text-anchor="start" x="113.5" y="-409" font-family="Linux libertine" font-size="10.00">(1, 64, 321, 481) </text>
<polygon fill="none" stroke="black" points="60.5,-380 60.5,-401 108.5,-401 108.5,-380 60.5,-380"/>
<text text-anchor="start" x="65.5" y="-388" font-family="Linux libertine" font-size="10.00">output: </text>
<polygon fill="none" stroke="black" points="108.5,-380 108.5,-401 201.5,-401 201.5,-380 108.5,-380"/>
<text text-anchor="start" x="113.5" y="-388" font-family="Linux libertine" font-size="10.00">(1, 64, 321, 481) </text>
</g>
<!-- 2&#45;&gt;3 -->
<g id="edge3" class="edge">
<title>2&#45;&gt;3</title>
<path fill="none" stroke="black" d="M107.5,-457.63C107.5,-449.82 107.5,-440.73 107.5,-432.18"/>
<polygon fill="black" stroke="black" points="111,-432.16 107.5,-422.16 104,-432.16 111,-432.16"/>
</g>
<!-- 4 -->
<g id="node5" class="node">
<title>4</title>
<polygon fill="#c1ffc1" stroke="transparent" points="201.5,-344 13.5,-344 13.5,-302 201.5,-302 201.5,-344"/>
<polygon fill="none" stroke="black" points="13.5,-302 13.5,-344 60.5,-344 60.5,-302 13.5,-302"/>
<text text-anchor="start" x="24" y="-326" font-family="Linux libertine" font-size="10.00">ReLU</text>
<text text-anchor="start" x="18.5" y="-315" font-family="Linux libertine" font-size="10.00">depth:2</text>
<polygon fill="none" stroke="black" points="60.5,-323 60.5,-344 108.5,-344 108.5,-323 60.5,-323"/>
<text text-anchor="start" x="70.5" y="-331" font-family="Linux libertine" font-size="10.00">input:</text>
<polygon fill="none" stroke="black" points="108.5,-323 108.5,-344 201.5,-344 201.5,-323 108.5,-323"/>
<text text-anchor="start" x="113.5" y="-331" font-family="Linux libertine" font-size="10.00">(1, 64, 321, 481) </text>
<polygon fill="none" stroke="black" points="60.5,-302 60.5,-323 108.5,-323 108.5,-302 60.5,-302"/>
<text text-anchor="start" x="65.5" y="-310" font-family="Linux libertine" font-size="10.00">output: </text>
<polygon fill="none" stroke="black" points="108.5,-302 108.5,-323 201.5,-323 201.5,-302 108.5,-302"/>
<text text-anchor="start" x="113.5" y="-310" font-family="Linux libertine" font-size="10.00">(1, 64, 321, 481) </text>
</g>
<!-- 3&#45;&gt;4 -->
<g id="edge4" class="edge">
<title>3&#45;&gt;4</title>
<path fill="none" stroke="black" d="M107.5,-379.63C107.5,-371.82 107.5,-362.73 107.5,-354.18"/>
<polygon fill="black" stroke="black" points="111,-354.16 107.5,-344.16 104,-354.16 111,-354.16"/>
</g>
<!-- 5 -->
<g id="node6" class="node">
<title>5</title>
<polygon fill="#c1ffc1" stroke="transparent" points="204.5,-266 10.5,-266 10.5,-224 204.5,-224 204.5,-266"/>
<polygon fill="none" stroke="black" points="10.5,-224 10.5,-266 57.5,-266 57.5,-224 10.5,-224"/>
<text text-anchor="start" x="15.5" y="-248" font-family="Linux libertine" font-size="10.00">Conv2d</text>
<text text-anchor="start" x="15.5" y="-237" font-family="Linux libertine" font-size="10.00">depth:2</text>
<polygon fill="none" stroke="black" points="57.5,-245 57.5,-266 105.5,-266 105.5,-245 57.5,-245"/>
<text text-anchor="start" x="67.5" y="-253" font-family="Linux libertine" font-size="10.00">input:</text>
<polygon fill="none" stroke="black" points="105.5,-245 105.5,-266 204.5,-266 204.5,-245 105.5,-245"/>
<text text-anchor="start" x="113.5" y="-253" font-family="Linux libertine" font-size="10.00">(1, 64, 321, 481) </text>
<polygon fill="none" stroke="black" points="57.5,-224 57.5,-245 105.5,-245 105.5,-224 57.5,-224"/>
<text text-anchor="start" x="62.5" y="-232" font-family="Linux libertine" font-size="10.00">output: </text>
<polygon fill="none" stroke="black" points="105.5,-224 105.5,-245 204.5,-245 204.5,-224 105.5,-224"/>
<text text-anchor="start" x="110.5" y="-232" font-family="Linux libertine" font-size="10.00">(1, 288, 321, 481) </text>
</g>
<!-- 4&#45;&gt;5 -->
<g id="edge5" class="edge">
<title>4&#45;&gt;5</title>
<path fill="none" stroke="black" d="M107.5,-301.63C107.5,-293.82 107.5,-284.73 107.5,-276.18"/>
<polygon fill="black" stroke="black" points="111,-276.16 107.5,-266.16 104,-276.16 111,-276.16"/>
</g>
<!-- 6 -->
<g id="node7" class="node">
<title>6</title>
<polygon fill="#c1ffc1" stroke="transparent" points="204.5,-188 10.5,-188 10.5,-146 204.5,-146 204.5,-188"/>
<polygon fill="none" stroke="black" points="10.5,-146 10.5,-188 57.5,-188 57.5,-146 10.5,-146"/>
<text text-anchor="start" x="21" y="-170" font-family="Linux libertine" font-size="10.00">ReLU</text>
<text text-anchor="start" x="15.5" y="-159" font-family="Linux libertine" font-size="10.00">depth:2</text>
<polygon fill="none" stroke="black" points="57.5,-167 57.5,-188 105.5,-188 105.5,-167 57.5,-167"/>
<text text-anchor="start" x="67.5" y="-175" font-family="Linux libertine" font-size="10.00">input:</text>
<polygon fill="none" stroke="black" points="105.5,-167 105.5,-188 204.5,-188 204.5,-167 105.5,-167"/>
<text text-anchor="start" x="110.5" y="-175" font-family="Linux libertine" font-size="10.00">(1, 288, 321, 481) </text>
<polygon fill="none" stroke="black" points="57.5,-146 57.5,-167 105.5,-167 105.5,-146 57.5,-146"/>
<text text-anchor="start" x="62.5" y="-154" font-family="Linux libertine" font-size="10.00">output: </text>
<polygon fill="none" stroke="black" points="105.5,-146 105.5,-167 204.5,-167 204.5,-146 105.5,-146"/>
<text text-anchor="start" x="110.5" y="-154" font-family="Linux libertine" font-size="10.00">(1, 288, 321, 481) </text>
</g>
<!-- 5&#45;&gt;6 -->
<g id="edge6" class="edge">
<title>5&#45;&gt;6</title>
<path fill="none" stroke="black" d="M107.5,-223.63C107.5,-215.82 107.5,-206.73 107.5,-198.18"/>
<polygon fill="black" stroke="black" points="111,-198.16 107.5,-188.16 104,-198.16 111,-198.16"/>
</g>
<!-- 7 -->
<g id="node8" class="node">
<title>7</title>
<polygon fill="#c1ffc1" stroke="transparent" points="215,-110 0,-110 0,-68 215,-68 215,-110"/>
<polygon fill="none" stroke="black" points="0.5,-68 0.5,-110 68.5,-110 68.5,-68 0.5,-68"/>
<text text-anchor="start" x="5.5" y="-92" font-family="Linux libertine" font-size="10.00">PixelShuffle</text>
<text text-anchor="start" x="16" y="-81" font-family="Linux libertine" font-size="10.00">depth:2</text>
<polygon fill="none" stroke="black" points="68.5,-89 68.5,-110 116.5,-110 116.5,-89 68.5,-89"/>
<text text-anchor="start" x="78.5" y="-97" font-family="Linux libertine" font-size="10.00">input:</text>
<polygon fill="none" stroke="black" points="116.5,-89 116.5,-110 215.5,-110 215.5,-89 116.5,-89"/>
<text text-anchor="start" x="121.5" y="-97" font-family="Linux libertine" font-size="10.00">(1, 288, 321, 481) </text>
<polygon fill="none" stroke="black" points="68.5,-68 68.5,-89 116.5,-89 116.5,-68 68.5,-68"/>
<text text-anchor="start" x="73.5" y="-76" font-family="Linux libertine" font-size="10.00">output: </text>
<polygon fill="none" stroke="black" points="116.5,-68 116.5,-89 215.5,-89 215.5,-68 116.5,-68"/>
<text text-anchor="start" x="121.5" y="-76" font-family="Linux libertine" font-size="10.00">(1, 32, 963, 1443) </text>
</g>
<!-- 6&#45;&gt;7 -->
<g id="edge7" class="edge">
<title>6&#45;&gt;7</title>
<path fill="none" stroke="black" d="M107.5,-145.63C107.5,-137.82 107.5,-128.73 107.5,-120.18"/>
<polygon fill="black" stroke="black" points="111,-120.16 107.5,-110.16 104,-120.16 111,-120.16"/>
</g>
<!-- 8 -->
<g id="node9" class="node">
<title>8</title>
<polygon fill="lightyellow" stroke="transparent" points="194,-32 21,-32 21,0 194,0 194,-32"/>
<polygon fill="none" stroke="black" points="21.5,0 21.5,-32 98.5,-32 98.5,0 21.5,0"/>
<text text-anchor="start" x="26.5" y="-19" font-family="Linux libertine" font-size="10.00">output&#45;tensor</text>
<text text-anchor="start" x="41.5" y="-8" font-family="Linux libertine" font-size="10.00">depth:0</text>
<polygon fill="none" stroke="black" points="98.5,0 98.5,-32 194.5,-32 194.5,0 98.5,0"/>
<text text-anchor="start" x="103.5" y="-13.5" font-family="Linux libertine" font-size="10.00">(1, 32, 963, 1443)</text>
</g>
<!-- 7&#45;&gt;8 -->
<g id="edge8" class="edge">
<title>7&#45;&gt;8</title>
<path fill="none" stroke="black" d="M107.5,-67.84C107.5,-59.89 107.5,-50.66 107.5,-42.26"/>
<polygon fill="black" stroke="black" points="111,-42.24 107.5,-32.24 104,-42.24 111,-42.24"/>
</g>
</g>
</svg>
